REM DIRINDEX 1\2\4,1\2\5,1\2\6,1\3\7,1\3\8,1\3\9,1\3\10
REM DIRNAME folder01,folder02,folder03,folder04,folder05,folder06,folder07,folder08,folder09,folder10
TITLE ""
FILE "b_50.mp3" MP3
  TRACK 01 AUDIO
    TITLE "0:"
    INDEX 01 00:00:00
  TRACK 02 AUDIO
    TITLE "10:cjc058_4425"
    INDEX 01 00:00:13
  TRACK 03 AUDIO
    TITLE "0:"
    INDEX 01 00:02:57
  TRACK 04 AUDIO
    TITLE "7:cjc058_4426"
    INDEX 01 00:03:27
  TRACK 05 AUDIO
    TITLE "0:"
    INDEX 01 00:04:70
  TRACK 06 AUDIO
    TITLE "8:cjc058_4427"
    INDEX 01 00:05:26
  TRACK 07 AUDIO
    TITLE "0:"
    INDEX 01 00:07:15
  TRACK 08 AUDIO
    TITLE "9:cjc058_4428"
    INDEX 01 00:07:54
  TRACK 09 AUDIO
    TITLE "0:"
    INDEX 01 00:10:45
  TRACK 10 AUDIO
    TITLE "7:cjc058_4429"
    INDEX 01 00:11:50
  TRACK 11 AUDIO
    TITLE "0:"
    INDEX 01 00:13:08
  TRACK 12 AUDIO
    TITLE "8:cjc058_4430"
    INDEX 01 00:13:39
  TRACK 13 AUDIO
    TITLE "0:"
    INDEX 01 00:16:14
  TRACK 14 AUDIO
    TITLE "9:cjc058_4431"
    INDEX 01 00:16:57
  TRACK 15 AUDIO
    TITLE "0:"
    INDEX 01 00:20:20
  TRACK 16 AUDIO
    TITLE "7:cjc058_4432"
    INDEX 01 00:21:25
  TRACK 17 AUDIO
    TITLE "0:"
    INDEX 01 00:23:12
  TRACK 18 AUDIO
    TITLE "8:cjc058_4433"
    INDEX 01 00:23:42
  TRACK 19 AUDIO
    TITLE "0:"
    INDEX 01 00:25:21
  TRACK 20 AUDIO
    TITLE "9:cjc058_4434"
    INDEX 01 00:25:66
  TRACK 21 AUDIO
    TITLE "0:"
    INDEX 01 00:29:09
  TRACK 22 AUDIO
    TITLE "7:cjc058_4435"
    INDEX 01 00:30:14
  TRACK 23 AUDIO
    TITLE "0:"
    INDEX 01 00:31:69
  TRACK 24 AUDIO
    TITLE "8:cjc058_4436"
    INDEX 01 00:32:27
  TRACK 25 AUDIO
    TITLE "0:"
    INDEX 01 00:34:08
  TRACK 26 AUDIO
    TITLE "9:cjc058_4437"
    INDEX 01 00:34:51
  TRACK 27 AUDIO
    TITLE "0:"
    INDEX 01 00:39:03
  TRACK 28 AUDIO
    TITLE "7:cjc058_4438"
    INDEX 01 00:40:09
  TRACK 29 AUDIO
    TITLE "0:"
    INDEX 01 00:41:69
  TRACK 30 AUDIO
    TITLE "8:cjc058_4439"
    INDEX 01 00:42:23
  TRACK 31 AUDIO
    TITLE "0:"
    INDEX 01 00:44:05
  TRACK 32 AUDIO
    TITLE "9:cjc058_4440"
    INDEX 01 00:44:50
  TRACK 33 AUDIO
    TITLE "0:"
    INDEX 01 00:47:66
  TRACK 34 AUDIO
    TITLE "7:cjc058_4441"
    INDEX 01 00:48:73
  TRACK 35 AUDIO
    TITLE "0:"
    INDEX 01 00:50:48
  TRACK 36 AUDIO
    TITLE "8:cjc058_4442"
    INDEX 01 00:51:05
  TRACK 37 AUDIO
    TITLE "0:"
    INDEX 01 00:52:51
  TRACK 38 AUDIO
    TITLE "9:cjc058_4443"
    INDEX 01 00:53:21
  TRACK 39 AUDIO
    TITLE "0:"
    INDEX 01 00:56:65
  TRACK 40 AUDIO
    TITLE "7:cjc058_4444"
    INDEX 01 00:57:72
  TRACK 41 AUDIO
    TITLE "0:"
    INDEX 01 00:59:71
  TRACK 42 AUDIO
    TITLE "8:cjc058_4445"
    INDEX 01 01:00:25
  TRACK 43 AUDIO
    TITLE "0:"
    INDEX 01 01:02:42
  TRACK 44 AUDIO
    TITLE "9:cjc058_4446"
    INDEX 01 01:03:12
  TRACK 45 AUDIO
    TITLE "0:"
    INDEX 01 01:06:73
  TRACK 46 AUDIO
    TITLE "7:cjc058_4447"
    INDEX 01 01:08:05
  TRACK 47 AUDIO
    TITLE "0:"
    INDEX 01 01:09:69
  TRACK 48 AUDIO
    TITLE "8:cjc058_4448"
    INDEX 01 01:10:26
  TRACK 49 AUDIO
    TITLE "0:"
    INDEX 01 01:12:15
  TRACK 50 AUDIO
    TITLE "9:cjc058_4449"
    INDEX 01 01:12:58
  TRACK 51 AUDIO
    TITLE "0:"
    INDEX 01 01:16:52
  TRACK 52 AUDIO
    TITLE "7:cjc058_4450"
    INDEX 01 01:17:59
  TRACK 53 AUDIO
    TITLE "0:"
    INDEX 01 01:19:58
  TRACK 54 AUDIO
    TITLE "8:cjc058_4451"
    INDEX 01 01:20:14
  TRACK 55 AUDIO
    TITLE "0:"
    INDEX 01 01:23:03
  TRACK 56 AUDIO
    TITLE "9:cjc058_4452"
    INDEX 01 01:23:48
  TRACK 57 AUDIO
    TITLE "0:"
    INDEX 01 01:26:66
  TRACK 58 AUDIO
    TITLE "7:cjc058_4453"
    INDEX 01 01:28:00
  TRACK 59 AUDIO
    TITLE "0:"
    INDEX 01 01:29:45
  TRACK 60 AUDIO
    TITLE "8:cjc058_4454"
    INDEX 01 01:30:03
  TRACK 61 AUDIO
    TITLE "0:"
    INDEX 01 01:33:19
  TRACK 62 AUDIO
    TITLE "9:cjc058_4455"
    INDEX 01 01:33:64
  TRACK 63 AUDIO
    TITLE "0:"
    INDEX 01 01:37:68
  TRACK 64 AUDIO
    TITLE "7:cjc058_4456"
    INDEX 01 01:38:71
  TRACK 65 AUDIO
    TITLE "0:"
    INDEX 01 01:40:40
  TRACK 66 AUDIO
    TITLE "8:cjc058_4457"
    INDEX 01 01:40:72
  TRACK 67 AUDIO
    TITLE "0:"
    INDEX 01 01:42:53
  TRACK 68 AUDIO
    TITLE "9:cjc058_4458"
    INDEX 01 01:43:23
  TRACK 69 AUDIO
    TITLE "0:"
    INDEX 01 01:47:17
  TRACK 70 AUDIO
    TITLE "7:cjc058_4459"
    INDEX 01 01:48:24
  TRACK 71 AUDIO
    TITLE "0:"
    INDEX 01 01:49:69
  TRACK 72 AUDIO
    TITLE "8:cjc058_4460"
    INDEX 01 01:50:27
  TRACK 73 AUDIO
    TITLE "0:"
    INDEX 01 01:52:06
  TRACK 74 AUDIO
    TITLE "9:cjc058_4461"
    INDEX 01 01:52:51
  TRACK 75 AUDIO
    TITLE "0:"
    INDEX 01 01:55:67
  TRACK 76 AUDIO
    TITLE "7:cjc058_4462"
    INDEX 01 01:56:73
  TRACK 77 AUDIO
    TITLE "0:"
    INDEX 01 01:58:54
  TRACK 78 AUDIO
    TITLE "8:cjc058_4463"
    INDEX 01 01:59:06
  TRACK 79 AUDIO
    TITLE "0:"
    INDEX 01 02:00:53
  TRACK 80 AUDIO
    TITLE "9:cjc058_4464"
    INDEX 01 02:01:21
  TRACK 81 AUDIO
    TITLE "0:"
    INDEX 01 02:06:48
  TRACK 82 AUDIO
    TITLE "7:cjc058_4465"
    INDEX 01 02:07:53
  TRACK 83 AUDIO
    TITLE "0:"
    INDEX 01 02:09:38
  TRACK 84 AUDIO
    TITLE "8:cjc058_4466"
    INDEX 01 02:09:69
  TRACK 85 AUDIO
    TITLE "0:"
    INDEX 01 02:11:45
  TRACK 86 AUDIO
    TITLE "9:cjc058_4467"
    INDEX 01 02:12:15
  TRACK 87 AUDIO
    TITLE "0:"
    INDEX 01 02:17:26
  TRACK 88 AUDIO
    TITLE "7:cjc058_4468"
    INDEX 01 02:18:29
  TRACK 89 AUDIO
    TITLE "0:"
    INDEX 01 02:20:46
  TRACK 90 AUDIO
    TITLE "8:cjc058_4469"
    INDEX 01 02:21:02
  TRACK 91 AUDIO
    TITLE "0:"
    INDEX 01 02:25:18
  TRACK 92 AUDIO
    TITLE "9:cjc058_4470"
    INDEX 01 02:25:57
  TRACK 93 AUDIO
    TITLE "0:"
    INDEX 01 02:28:71
  TRACK 94 AUDIO
    TITLE "7:cjc058_4471"
    INDEX 01 02:30:03
  TRACK 95 AUDIO
    TITLE "0:"
    INDEX 01 02:31:57
  TRACK 96 AUDIO
    TITLE "8:cjc058_4472"
    INDEX 01 02:32:14
  TRACK 97 AUDIO
    TITLE "0:"
    INDEX 01 02:33:43
  TRACK 98 AUDIO
    TITLE "9:cjc058_4473"
    INDEX 01 02:34:09
  TRACK 99 AUDIO
    TITLE "0:"
    INDEX 01 02:38:57
  TRACK 100 AUDIO
    TITLE "7:cjc058_4474"
    INDEX 01 02:39:67
  TRACK 101 AUDIO
    TITLE "0:"
    INDEX 01 02:41:07
  TRACK 102 AUDIO
    TITLE "8:cjc058_4475"
    INDEX 01 02:41:36
  TRACK 103 AUDIO
    TITLE "0:"
    INDEX 01 02:44:17
  TRACK 104 AUDIO
    TITLE "9:cjc058_4476"
    INDEX 01 02:44:62
  TRACK 105 AUDIO
    TITLE "0:"
    INDEX 01 02:48:03
  TRACK 106 AUDIO
    TITLE "7:cjc058_4477"
    INDEX 01 02:49:08
  TRACK 107 AUDIO
    TITLE "0:"
    INDEX 01 02:50:55
  TRACK 108 AUDIO
    TITLE "8:cjc058_4478"
    INDEX 01 02:51:11
  TRACK 109 AUDIO
    TITLE "0:"
    INDEX 01 02:54:06
  TRACK 110 AUDIO
    TITLE "9:cjc058_4479"
    INDEX 01 02:54:49
  TRACK 111 AUDIO
    TITLE "0:"
    INDEX 01 02:59:20
